<?xml version="1.0" standalone="no"?>
<!DOCTYPE svg PUBLIC "-//W3C//DTD SVG 20010904//EN"
 "http://www.w3.org/TR/2001/REC-SVG-20010904/DTD/svg10.dtd">
<svg version="1.0" xmlns="http://www.w3.org/2000/svg"
 width="512.000000pt" height="512.000000pt" viewBox="0 0 512.000000 512.000000"
 preserveAspectRatio="xMidYMid meet">
<metadata>
Created by potrace 1.16, written by Peter Selinger 2001-2019
</metadata>
<g transform="translate(0.000000,512.000000) scale(0.100000,-0.100000)"
fill="#388C1A" stroke="none">
<path d="M788 5110 c-358 -61 -655 -334 -760 -697 l-23 -78 0 -1775 0 -1775
23 -78 c97 -335 344 -582 679 -679 l78 -23 1775 0 1775 0 78 23 c335 97 582
344 679 679 l23 78 0 1775 0 1775 -23 78 c-96 332 -337 575 -674 679 l-73 23
-1755 1 c-965 1 -1776 -2 -1802 -6z m3546 -417 c172 -65 307 -203 362 -370 18
-56 19 -110 19 -1763 0 -1653 -1 -1707 -19 -1763 -55 -167 -190 -305 -362
-370 l-59 -22 -1710 0 c-1658 0 -1712 1 -1768 19 -167 55 -305 190 -370 362
l-22 59 -3 1680 c-2 1213 0 1697 8 1740 31 164 151 319 308 397 120 59 21 57
1862 55 l1695 -2 59 -22z"/>
<path d="M2181 3598 c-176 -86 -299 -151 -308 -164 -12 -19 -9 -41 23 -185 44
-197 47 -206 77 -220 21 -9 48 1 205 80 100 50 184 91 187 91 3 0 5 -416 5
-925 l0 -925 24 -15 c21 -14 58 -16 250 -13 168 2 228 6 238 16 11 11 13 239
13 1193 0 1157 0 1181 -19 1195 -16 11 -62 14 -211 14 l-191 0 -293 -142z"/>
</g>
</svg>
