<?xml version="1.0" standalone="no"?>
<!DOCTYPE svg PUBLIC "-//W3C//DTD SVG 20010904//EN"
 "http://www.w3.org/TR/2001/REC-SVG-20010904/DTD/svg10.dtd">
<svg version="1.0" xmlns="http://www.w3.org/2000/svg"
 width="512.000000pt" height="512.000000pt" viewBox="0 0 512.000000 512.000000"
 preserveAspectRatio="xMidYMid meet">
<metadata>
Created by potrace 1.16, written by Peter Selinger 2001-2019
</metadata>
<g transform="translate(0.000000,512.000000) scale(0.100000,-0.100000)"
fill="#388C1A" stroke="none">
<path d="M788 5110 c-358 -61 -655 -334 -760 -697 l-23 -78 0 -1775 0 -1775
23 -78 c97 -335 344 -582 679 -679 l78 -23 1775 0 1775 0 78 23 c335 97 582
344 679 679 l23 78 0 1775 0 1775 -23 78 c-96 332 -337 575 -674 679 l-73 23
-1755 1 c-965 1 -1776 -2 -1802 -6z m3546 -417 c172 -65 307 -203 362 -370 18
-56 19 -110 19 -1763 0 -1653 -1 -1707 -19 -1763 -55 -167 -190 -305 -362
-370 l-59 -22 -1710 0 c-1658 0 -1712 1 -1768 19 -167 55 -305 190 -370 362
l-22 59 -3 1680 c-2 1213 0 1697 8 1740 31 164 151 319 308 397 120 59 21 57
1862 55 l1695 -2 59 -22z"/>
<path d="M2490 3769 c-177 -14 -398 -79 -537 -159 -46 -26 -53 -35 -53 -61 0
-35 85 -313 106 -346 20 -33 52 -29 141 16 352 177 684 112 684 -133 0 -72
-29 -128 -95 -177 -84 -64 -155 -81 -354 -88 -157 -5 -175 -8 -188 -25 -11
-15 -14 -59 -14 -193 0 -226 -11 -213 188 -213 212 0 333 -31 433 -111 132
-105 138 -317 10 -437 -79 -75 -253 -115 -412 -94 -110 15 -240 53 -337 97
-79 37 -113 43 -130 23 -13 -17 -112 -344 -112 -373 0 -30 23 -48 111 -89 97
-45 229 -83 349 -101 124 -19 364 -19 473 0 371 65 614 259 694 555 23 85 23
252 0 338 -46 174 -171 324 -331 401 l-59 28 49 28 c80 47 177 152 217 236 47
97 59 153 60 269 1 163 -50 287 -168 405 -160 160 -402 228 -725 204z"/>
</g>
</svg>
