<?xml version="1.0" standalone="no"?>
<!DOCTYPE svg PUBLIC "-//W3C//DTD SVG 20010904//EN"
 "http://www.w3.org/TR/2001/REC-SVG-20010904/DTD/svg10.dtd">
<svg version="1.0" xmlns="http://www.w3.org/2000/svg"
 width="512.000000pt" height="512.000000pt" viewBox="0 0 512.000000 512.000000"
 preserveAspectRatio="xMidYMid meet">
<metadata>
Created by potrace 1.16, written by Peter Selinger 2001-2019
</metadata>
<g transform="translate(0.000000,512.000000) scale(0.100000,-0.100000)"
fill="#388C1A" stroke="none">
<path d="M788 5110 c-358 -61 -655 -334 -760 -697 l-23 -78 0 -1775 0 -1775
23 -78 c97 -335 344 -582 679 -679 l78 -23 1775 0 1775 0 78 23 c335 97 582
344 679 679 l23 78 0 1775 0 1775 -23 78 c-96 332 -337 575 -674 679 l-73 23
-1755 1 c-965 1 -1776 -2 -1802 -6z m3546 -417 c172 -65 307 -203 362 -370 18
-56 19 -110 19 -1763 0 -1653 -1 -1707 -19 -1763 -55 -167 -190 -305 -362
-370 l-59 -22 -1710 0 c-1658 0 -1712 1 -1768 19 -167 55 -305 190 -370 362
l-22 59 -3 1680 c-2 1213 0 1697 8 1740 31 164 151 319 308 397 120 59 21 57
1862 55 l1695 -2 59 -22z"/>
<path d="M2513 3723 c-11 -10 -202 -295 -424 -633 -221 -338 -433 -662 -471
-718 l-68 -104 0 -163 c0 -135 3 -166 16 -179 14 -14 75 -16 520 -16 l504 0 0
-265 c0 -277 4 -308 44 -319 11 -3 113 -6 226 -6 170 0 209 3 228 16 22 15 22
17 22 295 l0 279 134 0 c109 0 138 3 150 16 13 13 16 46 16 204 0 234 11 220
-172 220 l-128 0 0 678 c0 408 -4 683 -10 692 -8 13 -53 15 -288 18 -256 3
-280 1 -299 -15z m79 -1005 l-5 -368 -232 0 -233 0 188 279 c103 154 209 320
236 370 26 50 48 90 49 88 2 -1 0 -167 -3 -369z"/>
</g>
</svg>
