<?xml version="1.0" standalone="no"?>
<!DOCTYPE svg PUBLIC "-//W3C//DTD SVG 20010904//EN"
 "http://www.w3.org/TR/2001/REC-SVG-20010904/DTD/svg10.dtd">
<svg version="1.0" xmlns="http://www.w3.org/2000/svg"
 width="592.000000pt" height="640.000000pt" viewBox="0 0 592.000000 640.000000"
 preserveAspectRatio="xMidYMid meet">
<metadata>
Created by potrace 1.16, written by Peter Selinger 2001-2019
</metadata>
<g transform="translate(0.000000,640.000000) scale(0.100000,-0.100000)"
fill="#388C1A" stroke="none">
<path d="M3896 6383 c-174 -37 -415 -181 -576 -344 -131 -132 -281 -361 -299
-456 -14 -72 -37 -310 -56 -563 -27 -378 -46 -604 -54 -635 -7 -27 -9 -23 -20
37 -6 37 -34 258 -61 490 -58 496 -72 591 -105 716 -60 228 -175 383 -381 519
-230 150 -447 194 -670 138 -178 -45 -329 -135 -499 -297 -104 -98 -377 -437
-468 -580 -20 -32 -41 -58 -46 -58 -13 0 -267 -207 -355 -290 -228 -214 -318
-427 -303 -718 11 -201 34 -257 164 -392 85 -90 189 -161 338 -231 244 -115
470 -161 1055 -214 327 -30 478 -49 492 -63 15 -15 -29 -40 -88 -52 -27 -5
-161 -14 -299 -20 -847 -35 -884 -40 -1055 -123 -271 -133 -479 -370 -549
-627 -30 -108 -53 -287 -54 -430 -2 -145 -2 -146 126 -320 111 -152 214 -262
338 -366 37 -31 56 -61 99 -152 121 -259 366 -569 519 -660 24 -14 73 -36 109
-49 146 -53 472 -87 607 -64 205 36 459 225 572 426 87 156 120 281 208 800
83 495 98 545 162 571 19 9 37 13 40 10 3 -2 -3 -173 -12 -378 -22 -467 -17
-765 14 -918 29 -138 100 -350 160 -475 66 -138 130 -232 229 -336 151 -159
253 -221 430 -260 121 -27 123 -26 141 65 27 142 12 175 -161 355 -139 143
-182 206 -251 359 -132 291 -190 631 -191 1117 0 154 4 262 10 280 11 29 13
24 51 -95 22 -69 57 -197 78 -285 79 -340 93 -384 140 -461 79 -126 226 -315
314 -404 107 -107 254 -221 345 -267 146 -74 382 -106 521 -72 63 15 181 68
237 107 51 35 234 212 271 262 14 20 69 118 121 218 155 298 276 460 409 549
74 48 82 58 135 149 99 174 136 347 136 644 1 196 -2 209 -86 354 -125 217
-278 337 -543 425 -201 67 -438 83 -1066 74 -297 -4 -451 -3 -463 4 -23 13 36
22 410 63 464 50 553 67 729 137 371 147 670 378 774 596 77 163 115 349 116
572 0 158 0 161 -32 233 -78 180 -182 299 -353 407 -317 198 -373 248 -527
467 -53 77 -127 175 -165 218 -128 148 -315 265 -471 295 -98 19 -250 18 -341
-2z"/>
</g>
</svg>
