<?xml version="1.0" standalone="no"?>
<!DOCTYPE svg PUBLIC "-//W3C//DTD SVG 20010904//EN"
 "http://www.w3.org/TR/2001/REC-SVG-20010904/DTD/svg10.dtd">
<svg version="1.0" xmlns="http://www.w3.org/2000/svg"
 width="512.000000pt" height="512.000000pt" viewBox="0 0 512.000000 512.000000"
 preserveAspectRatio="xMidYMid meet">
<metadata>
Created by potrace 1.16, written by Peter Selinger 2001-2019
</metadata>
<g transform="translate(0.000000,512.000000) scale(0.100000,-0.100000)"
fill="#388C1A" stroke="none">
<path d="M510 4473 c-45 -9 -181 -65 -178 -74 4 -11 2219 -1949 2228 -1949 9
0 2224 1938 2228 1949 2 5 -34 24 -80 43 l-83 33 -2045 1 c-1125 1 -2056 -1
-2070 -3z"/>
<path d="M65 4131 c-13 -27 -34 -82 -45 -122 -20 -72 -20 -98 -20 -1447 0
-1222 2 -1381 16 -1436 19 -73 53 -156 65 -156 10 0 1619 1800 1619 1811 0 11
-1587 1399 -1600 1399 -5 0 -21 -22 -35 -49z"/>
<path d="M4216 3486 c-434 -380 -791 -696 -793 -702 -4 -12 1603 -1814 1616
-1814 5 0 18 24 30 53 53 130 51 59 51 1537 0 1351 0 1377 -20 1449 -24 86
-65 171 -83 170 -6 0 -367 -312 -801 -693z"/>
<path d="M1115 1658 c-448 -502 -815 -916 -815 -920 0 -13 96 -57 171 -78 73
-20 95 -20 2089 -20 1994 0 2016 0 2089 20 75 21 171 65 171 78 0 12 -1630
1832 -1641 1832 -5 0 -123 -100 -262 -221 -138 -122 -265 -230 -282 -240 -39
-25 -111 -25 -150 0 -16 10 -144 118 -282 240 -139 121 -257 221 -262 221 -6
0 -377 -411 -826 -912z"/>
</g>
</svg>
